<svg id="Layer_1" data-name="Layer 1" xmlns="http://www.w3.org/2000/svg" xmlns:xlink="http://www.w3.org/1999/xlink" viewBox="0 0 234.23 230.51"><defs><style>.cls-1,.cls-2,.cls-6{fill:none;}.cls-1{clip-rule:evenodd;}.cls-3{clip-path:url(#clip-path);}.cls-4{clip-path:url(#clip-path-2);}.cls-5{fill:#fff;}.cls-6{stroke:#de2584;stroke-linecap:round;stroke-linejoin:round;stroke-width:10px;}.cls-7{clip-path:url(#clip-path-3);}.cls-8{clip-path:url(#clip-path-5);}.cls-9{fill:#f7d3e6;}.cls-10{clip-path:url(#clip-path-7);}.cls-11{clip-path:url(#clip-path-8);}.cls-12{clip-path:url(#clip-path-9);}</style><clipPath id="clip-path"><path class="cls-1" d="M197.32,147.21H144.44c0,0.27,0,.54,0,0.82v58.35c0,9.92-7.76,18.57-17.83,18.86a18.26,18.26,0,0,1-19-18.1V180.59c-0.81-11.56-6.14-33.38-34.92-33.38H45.91A28.47,28.47,0,0,1,17.23,119V53.72A28.47,28.47,0,0,1,45.91,25.47H184.06c12.32,0,19.85,7.52,24.91,18.3a61.68,61.68,0,0,1,4.78,15.88l11.49,54.82a27.56,27.56,0,0,1-2.44,17.46,28.73,28.73,0,0,1-25.48,15.27"/></clipPath><clipPath id="clip-path-2"><rect class="cls-2" x="-3665.63" y="-23991.41" width="9928.08" height="27691.07"/></clipPath><clipPath id="clip-path-3"><path class="cls-1" d="M59.06,8.09H18.83A10.22,10.22,0,0,0,8.54,18.24V145.61a10.21,10.21,0,0,0,10.29,10.14H59.06a10.21,10.21,0,0,0,10.29-10.14V18.24A10.22,10.22,0,0,0,59.06,8.09"/></clipPath><clipPath id="clip-path-5"><path class="cls-1" d="M59.06,8.09H18.83A10.22,10.22,0,0,0,8.54,18.24V145.61a10.21,10.21,0,0,0,10.29,10.14H59.06a10.21,10.21,0,0,0,10.29-10.14V18.24A10.22,10.22,0,0,0,59.06,8.09Z"/></clipPath><clipPath id="clip-path-7"><path class="cls-1" d="M52.55-181.28H12.17a10.26,10.26,0,0,1-10.33-10.2V-319.57a10.26,10.26,0,0,1,10.33-10.2H52.55a10.26,10.26,0,0,1,10.33,10.2v128.09a10.26,10.26,0,0,1-10.33,10.2"/></clipPath><clipPath id="clip-path-8"><path class="cls-1" d="M52.55-181.28H12.17a10.26,10.26,0,0,1-10.33-10.2V-319.57a10.26,10.26,0,0,1,10.33-10.2H52.55a10.26,10.26,0,0,1,10.33,10.2v128.09A10.26,10.26,0,0,1,52.55-181.28Z"/></clipPath><clipPath id="clip-path-9"><path class="cls-1" d="M48.59-540.51H8.21a10.26,10.26,0,0,1-10.33-10.2V-678.8A10.26,10.26,0,0,1,8.21-689H48.59a10.26,10.26,0,0,1,10.33,10.2v128.09A10.26,10.26,0,0,1,48.59-540.51Z"/></clipPath></defs><title>down</title><g class="cls-3"><g class="cls-4"><rect class="cls-5" x="-26.2" y="-17.96" width="295.32" height="286.64"/></g></g><path class="cls-6" d="M197.32,147.21H144.44c0,0.27,0,.54,0,0.82v58.35c0,9.92-7.76,18.57-17.83,18.86a18.26,18.26,0,0,1-19-18.1V180.59c-0.81-11.56-6.14-33.38-34.92-33.38H45.91A28.47,28.47,0,0,1,17.23,119V53.72A28.47,28.47,0,0,1,45.91,25.47H184.06c12.32,0,19.85,7.52,24.91,18.3a61.7,61.7,0,0,1,4.78,15.88l11.49,54.82a27.55,27.55,0,0,1-2.44,17.46A28.73,28.73,0,0,1,197.32,147.21Z"/><g class="cls-7"><g class="cls-4"><rect class="cls-5" x="-34.89" y="-35.34" width="147.66" height="234.52"/></g></g><g class="cls-8"><g class="cls-4"><rect class="cls-9" x="-34.89" y="-35.34" width="147.66" height="234.52"/></g></g><path class="cls-6" d="M59.06,8.09H18.83A10.22,10.22,0,0,0,8.54,18.24V145.61a10.21,10.21,0,0,0,10.29,10.14H59.06a10.21,10.21,0,0,0,10.29-10.14V18.24A10.22,10.22,0,0,0,59.06,8.09Z"/></svg>