<svg xmlns="http://www.w3.org/2000/svg" viewBox="0 0 1325 498.16"><defs><style>.cls-1{fill:#ff9e1b;}.cls-2{fill:#de2183;}.cls-3{fill:#242e50;}.cls-4{fill:#008098;}.cls-5{fill:#ff9d1b;}.cls-6{fill:#2dccd3;}.cls-7{fill:#757575;}.cls-8{fill:#e40046;}.cls-9{fill:#008099;}</style></defs><title>Asset 1</title><g id="Layer_2" data-name="Layer 2"><g id="Layer_1-2" data-name="Layer 1"><polygon class="cls-1" points="148 72.39 109.28 111.11 148 149.83 148 72.39"/><polygon class="cls-2" points="190 216.87 224.74 182.13 190 147.39 190 216.87"/><polygon class="cls-3" points="289 118.15 253 118.15 253 154.15 289 118.15"/><polygon class="cls-4" points="190.64 13.46 225 47.82 190.64 82.18 190.64 13.46"/><polygon class="cls-5" points="325 140.51 325 185.39 280.12 185.39 325 140.51"/><polygon class="cls-6" points="251.5 226.39 275.79 250.68 300.08 226.39 251.5 226.39"/><path class="cls-7" d="M1324.86,421.39v-118l-27.54.23v20.92a45.66,45.66,0,0,0-17.5-16.14q-10.88-5.73-25.18-5.73-17.14,0-30.32,7.62a52.3,52.3,0,0,0-20.45,21.51c-4.85,9.26-7.27,24-7.27,36.09,0,12.29,2.42,27.13,7.27,36.51a53.59,53.59,0,0,0,20.45,21.93q13.18,7.86,30.32,7.86,14.54,0,25.36-5.61a43.45,43.45,0,0,0,17.32-16.25v10.06h0V438.7q0,16.67-11,26.6t-29.43,9.93a61.64,61.64,0,0,1-21.22-3.55,74.38,74.38,0,0,1-16.42-8.55l-16.79,16.79,2.06,1.33q24.94,16.9,53.55,16.9,20.09,0,35.23-7.33A54.24,54.24,0,0,0,1316.65,470q8.21-13.54,8.22-32l.13-16.6Zm-37.94-20.17q-10.4,11.11-26.72,11.11-16.67,0-27-11.11c-6.86-7.41-10.36-20.9-10.52-32.49.16-11.66,3.7-25.16,10.64-32.49s15.88-11,26.83-11,20,3.68,26.83,11.05,10.28,20.84,10.28,32.43S1293.86,393.81,1286.92,401.22Z"/><path class="cls-7" d="M529.77,177.85a81,81,0,0,1-19.27,8.57,68.94,68.94,0,0,1-19.62,3,62.88,62.88,0,0,1-31.27-8,59.83,59.83,0,0,1-22.52-21.81,59.91,59.91,0,0,1,0-60.76,60,60,0,0,1,22.46-21.81,62.32,62.32,0,0,1,31.09-8,70.23,70.23,0,0,1,26.07,5.08A72.46,72.46,0,0,1,536.5,85.89L555,67.42a38.79,38.79,0,0,0-6.41-5.55,102,102,0,0,0-22.69-11.74,100,100,0,0,0-35.23-6.44A95.19,95.19,0,0,0,444.6,55a85.31,85.31,0,0,0-32.8,30.73,81.36,81.36,0,0,0-11.94,43.44,84.23,84.23,0,0,0,43.86,74.59,91.49,91.49,0,0,0,45.16,11.35,115,115,0,0,0,65.84-22V130.57H529.77Z"/><path class="cls-7" d="M674.13,92.39a59.44,59.44,0,0,1,23.7,23q8.45,14.72,8.45,34.1,0,19.15-8.45,34a58.7,58.7,0,0,1-23.7,23.11q-15.25,8.22-34.87,8.21-19.86,0-35.11-8.21a58.69,58.69,0,0,1-23.7-23.11q-8.45-14.89-8.45-34,0-19.39,8.45-34.1a59.44,59.44,0,0,1,23.7-23q15.25-8.27,35.11-8.27Q658.88,84.11,674.13,92.39Zm-63.3,27.37q-11.05,11.64-11.05,30,0,18.68,11.05,30.32t28.43,11.64q17.38,0,28.31-11.64t10.93-30.32q0-18.44-11.05-30t-28.19-11.58Q621.88,108.11,610.83,119.75Z"/><path class="cls-7" d="M822,92.39a59.44,59.44,0,0,1,23.7,23q8.45,14.72,8.45,34.1,0,19.15-8.45,34A58.7,58.7,0,0,1,822,206.64q-15.25,8.22-34.87,8.21-19.86,0-35.11-8.21a58.69,58.69,0,0,1-23.7-23.11q-8.45-14.89-8.45-34,0-19.39,8.45-34.1a59.44,59.44,0,0,1,23.7-23q15.25-8.27,35.11-8.27Q806.72,84.11,822,92.39Zm-63.3,27.37q-11.05,11.64-11.05,30,0,18.68,11.05,30.32t28.43,11.64q17.38,0,28.31-11.64t10.93-30.32q0-18.44-11.05-30T787.1,108.11Q769.72,108.11,758.67,119.75Z"/><path class="cls-7" d="M984,34.23l-2.89,0-7.22,7.22v65.9A50.12,50.12,0,0,0,955.1,90q-11.47-6.09-27-6.09-18,0-31.86,8.22a56.64,56.64,0,0,0-21.63,23q-7.74,14.78-7.74,33.93,0,19.39,7.74,34.4a57.08,57.08,0,0,0,21.63,23.35q13.89,8.33,32.33,8.33,15.25,0,26.77-5.91a46.08,46.08,0,0,0,18.5-17.26v22h27.78V34.23ZM962.9,180.16q-11,11.76-28.49,11.76T906,180.16Q894.93,168.4,894.69,150q.23-18.56,11.29-30.44t28.43-11.88q17.49,0,28.49,11.82t11,30.5Q973.89,168.39,962.9,180.16Z"/><path class="cls-7" d="M489.87,288.6V432.47H461.26V288.6H407.71V263H543.54V288.6Z"/><path class="cls-7" d="M666,315.91q-12.71-13.24-35.29-13.24-34.28,0-47.64,26.12v-76H564l-4.21-.19-4.63,4.63V432.47h27.9V369q0-17.38,9.93-28.67t26.83-11.53q14.54,0,22.75,8.39t8.22,22.93v72.34h27.9V352.32Q678.69,329.15,666,315.91Z"/><path class="cls-7" d="M696.19,432.47V303.62h27.66V432.47Z"/><path class="cls-7" d="M702,252.39h0l-6,6v22h28v-28H702Z"/><path class="cls-7" d="M851.12,315.91q12.77,13.24,12.77,36.41v80.15H836V360.12q0-14.54-8.22-22.93T805,328.8q-15.49.24-25.3,9.93T768.49,363.9v68.56h-27.9V303.62h27.9v24.71q13.12-25.65,47.4-25.65Q838.35,302.67,851.12,315.91Z"/><path class="cls-7" d="M1169.68,315.91q12.77,13.24,12.77,36.41v80.15h-27.9V360.12q0-14.54-8.22-22.93t-22.76-8.39q-15.49.24-25.3,9.93T1087,363.9v68.56h-27.9V303.62H1087v24.71q13.12-25.65,47.4-25.65Q1156.91,302.67,1169.68,315.91Z"/><path class="cls-7" d="M1018,252.39h0l-6,6v22h28v-28h-22Z"/><path class="cls-7" d="M1012.38,432.47V303.62H1040V432.47Z"/><polygon class="cls-7" points="949.3 353.5 996.94 303.62 965.03 303.62 908.17 361.3 908.17 252.79 889 252.79 886.71 252.68 880.27 259.12 880.27 432.47 908.17 432.47 908.17 396.41 929.92 373.36 967.75 432.47 1000.61 432.47 949.3 353.5"/><polygon class="cls-8" points="57.55 120.39 30.28 93.11 3 120.39 57.55 120.39"/><polygon class="cls-6" points="21 162.39 55.5 196.89 90 162.39 21 162.39"/><polygon class="cls-9" points="149 265.39 149 228.39 111 228.39 149 265.39"/><polygon class="cls-7" points="179.42 443.89 179.42 271.11 235.15 215.38 323.22 215.39 328.58 195.39 255.15 195.38 325.39 125.14 315.04 107.21 179.42 242.82 179.42 136.61 261.09 54.94 238.78 48.96 179.42 108.32 179.42 0 159.42 11.55 159.42 178.17 46.57 65.32 32.43 79.46 84.36 131.39 0.28 131.39 11.82 151.39 104.36 151.39 159.42 206.46 159.42 292.67 93.85 227.09 75.92 237.45 159.42 320.95 159.42 443.89 0 443.89 0 453.89 1277 453.89 1277 443.89 179.42 443.89"/></g></g></svg>