<svg id="Layer_1" data-name="Layer 1" xmlns="http://www.w3.org/2000/svg" xmlns:xlink="http://www.w3.org/1999/xlink" viewBox="0 0 234.23 230.52"><defs><style>.cls-1,.cls-2,.cls-8{fill:none;}.cls-1{clip-rule:evenodd;}.cls-3{clip-path:url(#clip-path);}.cls-4{clip-path:url(#clip-path-2);}.cls-5{clip-path:url(#clip-path-3);}.cls-6{clip-path:url(#clip-path-4);}.cls-7{clip-path:url(#clip-path-5);}.cls-8{stroke:#252f51;stroke-linecap:round;stroke-linejoin:round;stroke-width:10px;}.cls-9{clip-path:url(#clip-path-6);}.cls-10{clip-path:url(#clip-path-7);}.cls-11{fill:#d4d5dc;}</style><clipPath id="clip-path"><path class="cls-1" d="M209.11,909.92H156.23c0,0.27,0,.54,0,0.82v58.35c0,9.92-7.76,18.57-17.83,18.86a18.26,18.26,0,0,1-19-18.1V943.3c-0.81-11.56-6.14-33.38-34.92-33.38H57.7A28.47,28.47,0,0,1,29,881.67V816.44A28.47,28.47,0,0,1,57.7,788.18H195.85c12.32,0,19.85,7.52,24.91,18.3a61.68,61.68,0,0,1,4.78,15.88L237,877.19a27.56,27.56,0,0,1-2.44,17.46,28.73,28.73,0,0,1-25.48,15.27"/></clipPath><clipPath id="clip-path-2"><path class="cls-1" d="M70.85,770.81H30.62A10.22,10.22,0,0,0,20.33,781V908.33a10.21,10.21,0,0,0,10.29,10.14H70.85a10.21,10.21,0,0,0,10.29-10.14V781a10.22,10.22,0,0,0-10.29-10.14"/></clipPath><clipPath id="clip-path-3"><path class="cls-1" d="M70.85,770.81H30.62A10.22,10.22,0,0,0,20.33,781V908.33a10.21,10.21,0,0,0,10.29,10.14H70.85a10.21,10.21,0,0,0,10.29-10.14V781A10.22,10.22,0,0,0,70.85,770.81Z"/></clipPath><clipPath id="clip-path-4"><path class="cls-1" d="M64.34,581.44H24a10.26,10.26,0,0,1-10.33-10.2V443.15A10.26,10.26,0,0,1,24,432.95H64.34a10.26,10.26,0,0,1,10.33,10.2V571.24a10.26,10.26,0,0,1-10.33,10.2"/></clipPath><clipPath id="clip-path-5"><path class="cls-1" d="M64.34,581.44H24a10.26,10.26,0,0,1-10.33-10.2V443.15A10.26,10.26,0,0,1,24,432.95H64.34a10.26,10.26,0,0,1,10.33,10.2V571.24A10.26,10.26,0,0,1,64.34,581.44Z"/></clipPath><clipPath id="clip-path-6"><path class="cls-1" d="M60.38,222.2H20A10.26,10.26,0,0,1,9.67,212V83.91A10.26,10.26,0,0,1,20,73.71H60.38A10.26,10.26,0,0,1,70.7,83.91V212A10.26,10.26,0,0,1,60.38,222.2Z"/></clipPath><clipPath id="clip-path-7"><rect class="cls-2" x="-1718.84" y="-23931.1" width="9928.08" height="27691.07"/></clipPath></defs><title>down</title><path class="cls-8" d="M196.59,86.7H143.14c0-.28,0-0.55,0-0.83V26.72c0-10.06-7.84-18.82-18-19.13A18.48,18.48,0,0,0,106,26V52.86C105.19,64.59,99.8,86.7,70.7,86.7H43.54a28.82,28.82,0,0,0-29,28.64v66.14a28.82,28.82,0,0,0,29,28.64H183.18c12.46,0,20.07-7.62,25.18-18.56a62.68,62.68,0,0,0,4.84-16.1l11.62-55.58a28,28,0,0,0-2.47-17.7A29,29,0,0,0,196.59,86.7Z"/><g class="cls-9"><g class="cls-10"><rect class="cls-11" x="-33.76" y="30.28" width="147.9" height="235.35"/></g></g><path class="cls-8" d="M60.38,222.2H20A10.26,10.26,0,0,1,9.67,212V83.91A10.26,10.26,0,0,1,20,73.71H60.38A10.26,10.26,0,0,1,70.7,83.91V212A10.26,10.26,0,0,1,60.38,222.2Z"/></svg>