<?xml version="1.0" encoding="utf-8"?>
<!-- Generator: Adobe Illustrator 17.0.0, SVG Export Plug-In . SVG Version: 6.00 Build 0)  -->
<!DOCTYPE svg PUBLIC "-//W3C//DTD SVG 1.1//EN" "http://www.w3.org/Graphics/SVG/1.1/DTD/svg11.dtd">
<svg version="1.1" id="Layer_1" xmlns="http://www.w3.org/2000/svg" xmlns:xlink="http://www.w3.org/1999/xlink" x="0px" y="0px"
	 width="18px" height="18px" viewBox="0 0 18 18" enable-background="new 0 0 18 18" xml:space="preserve">
<path fill="#16B28F" d="M9,0C4.029,0,0,4.029,0,9c0,4.971,4.029,9,9,9s9-4.029,9-9C18,4.029,13.971,0,9,0z M12.66,11.246
	c0.391,0.391,0.391,1.023,0,1.414c-0.195,0.195-0.451,0.293-0.707,0.293s-0.512-0.098-0.707-0.293L9,10.414L6.754,12.66
	c-0.195,0.195-0.451,0.293-0.707,0.293S5.535,12.855,5.34,12.66c-0.391-0.391-0.391-1.023,0-1.414L7.586,9L5.34,6.754
	c-0.391-0.391-0.391-1.023,0-1.414s1.023-0.391,1.414,0L9,7.586l2.246-2.246c0.391-0.391,1.023-0.391,1.414,0s0.391,1.023,0,1.414
	L10.414,9L12.66,11.246z"/>
</svg>
